<svg width="12" height="12" viewBox="0 0 12 12" fill="none" xmlns="http://www.w3.org/2000/svg">
<path d="M3.28796 1.91406C3.04472 1.91406 2.81145 2.01069 2.63945 2.18268C2.46746 2.35468 2.37083 2.58795 2.37083 2.83119C2.37083 3.07442 2.46746 3.30769 2.63945 3.47969C2.81145 3.65168 3.04472 3.74831 3.28796 3.74831C3.53119 3.74831 3.76447 3.65168 3.93646 3.47969C4.10845 3.30769 4.20508 3.07442 4.20508 2.83119C4.20508 2.58795 4.10845 2.35468 3.93646 2.18268C3.76447 2.01069 3.53119 1.91406 3.28796 1.91406Z" stroke="white" stroke-width="0.687842" stroke-linecap="round" stroke-linejoin="round"/>
<path d="M3.28796 7.41797C3.04472 7.41797 2.81145 7.51459 2.63945 7.68659C2.46746 7.85858 2.37083 8.09186 2.37083 8.33509C2.37083 8.57833 2.46746 8.8116 2.63945 8.98359C2.81145 9.15559 3.04472 9.25221 3.28796 9.25221C3.53119 9.25221 3.76447 9.15559 3.93646 8.98359C4.10845 8.8116 4.20508 8.57833 4.20508 8.33509C4.20508 8.09186 4.10845 7.85858 3.93646 7.68659C3.76447 7.51459 3.53119 7.41797 3.28796 7.41797Z" stroke="white" stroke-width="0.687842" stroke-linecap="round" stroke-linejoin="round"/>
<path d="M3.28828 1.91322V0.996094L8.33245 0.996094C8.45407 0.996094 8.57071 1.04441 8.65671 1.1304C8.7427 1.2164 8.79102 1.33304 8.79102 1.45466L8.79102 7.87451C8.79102 8.4826 8.45283 9.06579 7.85085 9.49577C7.24887 9.92576 6.43241 10.1673 5.58109 10.1673H3.28828V9.2502M3.28828 7.41595L3.28828 3.74746" stroke="white" stroke-width="0.687842" stroke-linecap="round" stroke-linejoin="round"/>
<path d="M8.79102 7.41797L5.58109 8.10581V10.1693" stroke="white" stroke-width="0.687842" stroke-linecap="round" stroke-linejoin="round"/>
<path d="M6.49609 0.996094L6.49609 7.87451" stroke="white" stroke-width="0.687842" stroke-linecap="round" stroke-linejoin="round"/>
<path d="M8.79102 3.29102H6.49821" stroke="white" stroke-width="0.687842" stroke-linecap="round" stroke-linejoin="round"/>
<path d="M8.79102 5.58203H6.49821" stroke="white" stroke-width="0.687842" stroke-linecap="round" stroke-linejoin="round"/>
</svg>
