<svg width="38" height="38" viewBox="0 0 38 38" fill="none" xmlns="http://www.w3.org/2000/svg">
<path d="M26.9168 16.4167H13.2502V10.0833H26.9168V16.4167Z" fill="#38A3A5" stroke="#29638A" stroke-width="1.6" stroke-linecap="round" stroke-linejoin="round"/>
<path d="M7.91667 12.6667H4.75M7.91667 19H4.75M7.91667 25.3333H4.75M31.6667 33.25H7.91667C7.49674 33.25 7.09401 33.0832 6.79708 32.7863C6.50015 32.4893 6.33333 32.0866 6.33333 31.6667V6.33333C6.33333 5.91341 6.50015 5.51068 6.79708 5.21375C7.09401 4.91681 7.49674 4.75 7.91667 4.75H31.6667C32.0866 4.75 32.4893 4.91681 32.7863 5.21375C33.0832 5.51068 33.25 5.91341 33.25 6.33333V31.6667C33.25 32.0866 33.0832 32.4893 32.7863 32.7863C32.4893 33.0832 32.0866 33.25 31.6667 33.25Z" stroke="#29638A" stroke-width="1.6" stroke-linecap="round" stroke-linejoin="round"/>
<path d="M13.25 21H27" stroke="#29638A" stroke-width="1.6" stroke-linecap="round" stroke-linejoin="round"/>
<path d="M13.25 27H20" stroke="#29638A" stroke-width="1.6" stroke-linecap="round" stroke-linejoin="round"/>
</svg>
