<svg width="20" height="20" viewBox="0 0 20 20" fill="none" xmlns="http://www.w3.org/2000/svg">
<g clip-path="url(#clip0_8014_9090)">
<path d="M18.6901 8.82787L11.1818 1.31954C10.5568 0.694536 9.45677 0.686203 8.82344 1.31954L1.32344 8.81954C0.673438 9.46954 0.673438 10.5195 1.32344 11.1695L8.82344 18.6695C9.14844 18.9945 9.57344 19.1529 9.99844 19.1529C10.4234 19.1529 10.8484 18.9945 11.1734 18.6695L18.6651 11.1779C19.3234 10.5445 19.3318 9.49454 18.6901 8.82787ZM10.0068 17.4945L2.50677 9.99454L10.0068 2.49454L17.5068 9.99454L10.0068 17.4945ZM6.6651 9.16954V12.5029H8.33177V10.0029H11.6651V12.0862L14.5818 9.16954L11.6651 6.25287V8.3362H7.49844C7.0401 8.3362 6.6651 8.7112 6.6651 9.16954Z" fill="white"/>
</g>
<defs>
<clipPath id="clip0_8014_9090">
<rect width="20" height="20" fill="white"/>
</clipPath>
</defs>
</svg>
